<mxfile host="app.diagrams.net" modified="2022-06-20T03:47:55.651Z" agent="5.0 (Windows NT 10.0; Win64; x64) AppleWebKit/537.36 (KHTML, like Gecko) Chrome/101.0.4951.80 Safari/537.36" etag="3RfhA4zsOhXEZchNzcx6" version="20.0.1" type="github">
  <diagram id="T2uqzzPUwA0JryX57X0k" name="Page-1">
    <mxGraphModel dx="904" dy="2851" grid="1" gridSize="10" guides="1" tooltips="1" connect="1" arrows="1" fold="1" page="1" pageScale="1" pageWidth="827" pageHeight="1169" math="0" shadow="0">
      <root>
        <mxCell id="0" />
        <mxCell id="1" parent="0" />
        <mxCell id="rVZ40jxhPKs0Gg15Az54-2" value="Show login screen" style="rounded=1;whiteSpace=wrap;html=1;strokeColor=#000000;" vertex="1" parent="1">
          <mxGeometry x="220" y="-2200" width="120" height="60" as="geometry" />
        </mxCell>
        <mxCell id="rVZ40jxhPKs0Gg15Az54-4" value="" style="endArrow=classic;html=1;rounded=0;exitX=0.5;exitY=1;exitDx=0;exitDy=0;entryX=0.5;entryY=0;entryDx=0;entryDy=0;" edge="1" parent="1" source="rVZ40jxhPKs0Gg15Az54-2" target="rVZ40jxhPKs0Gg15Az54-6">
          <mxGeometry width="50" height="50" relative="1" as="geometry">
            <mxPoint x="280" y="-2080" as="sourcePoint" />
            <mxPoint x="270" y="-2090" as="targetPoint" />
          </mxGeometry>
        </mxCell>
        <mxCell id="rVZ40jxhPKs0Gg15Az54-6" value="" style="rounded=0;whiteSpace=wrap;html=1;strokeColor=#000000;fillColor=#000000;" vertex="1" parent="1">
          <mxGeometry x="210" y="-2090" width="140" height="20" as="geometry" />
        </mxCell>
        <mxCell id="rVZ40jxhPKs0Gg15Az54-8" value="" style="endArrow=classic;html=1;rounded=0;exitX=0.25;exitY=1;exitDx=0;exitDy=0;" edge="1" parent="1" source="rVZ40jxhPKs0Gg15Az54-6">
          <mxGeometry width="50" height="50" relative="1" as="geometry">
            <mxPoint x="210" y="-2010" as="sourcePoint" />
            <mxPoint x="245" y="-2020" as="targetPoint" />
          </mxGeometry>
        </mxCell>
        <mxCell id="rVZ40jxhPKs0Gg15Az54-9" value="" style="endArrow=classic;html=1;rounded=0;exitX=0.25;exitY=1;exitDx=0;exitDy=0;" edge="1" parent="1">
          <mxGeometry width="50" height="50" relative="1" as="geometry">
            <mxPoint x="310" y="-2070" as="sourcePoint" />
            <mxPoint x="310" y="-2020" as="targetPoint" />
          </mxGeometry>
        </mxCell>
        <mxCell id="rVZ40jxhPKs0Gg15Az54-12" style="edgeStyle=orthogonalEdgeStyle;rounded=0;orthogonalLoop=1;jettySize=auto;html=1;exitX=0;exitY=0.5;exitDx=0;exitDy=0;" edge="1" parent="1" source="rVZ40jxhPKs0Gg15Az54-10" target="rVZ40jxhPKs0Gg15Az54-24">
          <mxGeometry relative="1" as="geometry">
            <mxPoint x="80" y="-1990" as="targetPoint" />
          </mxGeometry>
        </mxCell>
        <mxCell id="rVZ40jxhPKs0Gg15Az54-10" value="exit the login screen" style="rounded=1;whiteSpace=wrap;html=1;strokeColor=#000000;" vertex="1" parent="1">
          <mxGeometry x="140" y="-2020" width="120" height="60" as="geometry" />
        </mxCell>
        <mxCell id="rVZ40jxhPKs0Gg15Az54-16" style="edgeStyle=orthogonalEdgeStyle;rounded=0;orthogonalLoop=1;jettySize=auto;html=1;exitX=0.5;exitY=1;exitDx=0;exitDy=0;entryX=0.5;entryY=0;entryDx=0;entryDy=0;" edge="1" parent="1" source="rVZ40jxhPKs0Gg15Az54-11" target="rVZ40jxhPKs0Gg15Az54-15">
          <mxGeometry relative="1" as="geometry" />
        </mxCell>
        <mxCell id="rVZ40jxhPKs0Gg15Az54-11" value="&lt;div&gt;account entry,&lt;/div&gt;&lt;div&gt;unlock password&lt;/div&gt;" style="rounded=1;whiteSpace=wrap;html=1;strokeColor=#000000;" vertex="1" parent="1">
          <mxGeometry x="300" y="-2020" width="120" height="60" as="geometry" />
        </mxCell>
        <mxCell id="rVZ40jxhPKs0Gg15Az54-17" style="edgeStyle=orthogonalEdgeStyle;rounded=0;orthogonalLoop=1;jettySize=auto;html=1;exitX=0.25;exitY=1;exitDx=0;exitDy=0;entryX=0.5;entryY=1;entryDx=0;entryDy=0;" edge="1" parent="1" source="rVZ40jxhPKs0Gg15Az54-15" target="rVZ40jxhPKs0Gg15Az54-10">
          <mxGeometry relative="1" as="geometry" />
        </mxCell>
        <mxCell id="rVZ40jxhPKs0Gg15Az54-21" style="edgeStyle=orthogonalEdgeStyle;rounded=0;orthogonalLoop=1;jettySize=auto;html=1;exitX=0.75;exitY=1;exitDx=0;exitDy=0;" edge="1" parent="1" source="rVZ40jxhPKs0Gg15Az54-15">
          <mxGeometry relative="1" as="geometry">
            <mxPoint x="395" y="-1860" as="targetPoint" />
          </mxGeometry>
        </mxCell>
        <mxCell id="rVZ40jxhPKs0Gg15Az54-15" value="" style="rounded=0;whiteSpace=wrap;html=1;strokeColor=#000000;fillColor=#000000;" vertex="1" parent="1">
          <mxGeometry x="290" y="-1920" width="140" height="20" as="geometry" />
        </mxCell>
        <mxCell id="rVZ40jxhPKs0Gg15Az54-28" style="edgeStyle=orthogonalEdgeStyle;rounded=0;orthogonalLoop=1;jettySize=auto;html=1;exitX=0.5;exitY=1;exitDx=0;exitDy=0;entryX=0.5;entryY=0;entryDx=0;entryDy=0;strokeColor=#000000;" edge="1" parent="1" source="rVZ40jxhPKs0Gg15Az54-18" target="rVZ40jxhPKs0Gg15Az54-25">
          <mxGeometry relative="1" as="geometry" />
        </mxCell>
        <mxCell id="rVZ40jxhPKs0Gg15Az54-18" value="hit the login button" style="rounded=1;whiteSpace=wrap;html=1;strokeColor=#000000;" vertex="1" parent="1">
          <mxGeometry x="360" y="-1860" width="120" height="60" as="geometry" />
        </mxCell>
        <mxCell id="rVZ40jxhPKs0Gg15Az54-31" style="edgeStyle=orthogonalEdgeStyle;rounded=0;orthogonalLoop=1;jettySize=auto;html=1;exitX=0.5;exitY=0;exitDx=0;exitDy=0;entryX=1;entryY=0.5;entryDx=0;entryDy=0;strokeColor=#000000;" edge="1" parent="1" source="rVZ40jxhPKs0Gg15Az54-19" target="rVZ40jxhPKs0Gg15Az54-11">
          <mxGeometry relative="1" as="geometry" />
        </mxCell>
        <mxCell id="rVZ40jxhPKs0Gg15Az54-19" value="Incorrect account and password message" style="rounded=1;whiteSpace=wrap;html=1;strokeColor=#000000;" vertex="1" parent="1">
          <mxGeometry x="560" y="-1850" width="120" height="60" as="geometry" />
        </mxCell>
        <mxCell id="rVZ40jxhPKs0Gg15Az54-35" style="edgeStyle=orthogonalEdgeStyle;rounded=0;orthogonalLoop=1;jettySize=auto;html=1;exitX=0.5;exitY=1;exitDx=0;exitDy=0;entryX=0.5;entryY=0;entryDx=0;entryDy=0;strokeColor=#000000;" edge="1" parent="1" source="rVZ40jxhPKs0Gg15Az54-22" target="rVZ40jxhPKs0Gg15Az54-2">
          <mxGeometry relative="1" as="geometry" />
        </mxCell>
        <mxCell id="rVZ40jxhPKs0Gg15Az54-22" value="" style="ellipse;html=1;shape=startState;fillColor=#000000;strokeColor=#000000;" vertex="1" parent="1">
          <mxGeometry x="248.75" y="-2300" width="62.5" height="50" as="geometry" />
        </mxCell>
        <mxCell id="rVZ40jxhPKs0Gg15Az54-24" value="" style="ellipse;html=1;shape=endState;fillColor=#000000;strokeColor=#000000;" vertex="1" parent="1">
          <mxGeometry x="50" y="-2012.5" width="45" height="45" as="geometry" />
        </mxCell>
        <mxCell id="rVZ40jxhPKs0Gg15Az54-29" style="edgeStyle=orthogonalEdgeStyle;rounded=0;orthogonalLoop=1;jettySize=auto;html=1;exitX=0.5;exitY=1;exitDx=0;exitDy=0;entryX=0.5;entryY=0;entryDx=0;entryDy=0;strokeColor=#000000;" edge="1" parent="1" source="rVZ40jxhPKs0Gg15Az54-25" target="rVZ40jxhPKs0Gg15Az54-27">
          <mxGeometry relative="1" as="geometry" />
        </mxCell>
        <mxCell id="rVZ40jxhPKs0Gg15Az54-30" style="edgeStyle=orthogonalEdgeStyle;rounded=0;orthogonalLoop=1;jettySize=auto;html=1;exitX=1;exitY=0.5;exitDx=0;exitDy=0;entryX=0.5;entryY=1;entryDx=0;entryDy=0;strokeColor=#000000;" edge="1" parent="1" source="rVZ40jxhPKs0Gg15Az54-25" target="rVZ40jxhPKs0Gg15Az54-19">
          <mxGeometry relative="1" as="geometry" />
        </mxCell>
        <mxCell id="rVZ40jxhPKs0Gg15Az54-25" value="" style="rhombus;whiteSpace=wrap;html=1;strokeColor=#000000;fillColor=#FFFFFF;" vertex="1" parent="1">
          <mxGeometry x="390" y="-1740" width="60" height="60" as="geometry" />
        </mxCell>
        <mxCell id="rVZ40jxhPKs0Gg15Az54-27" value="Go to homepage" style="rounded=1;whiteSpace=wrap;html=1;strokeColor=#000000;" vertex="1" parent="1">
          <mxGeometry x="360" y="-1630" width="120" height="60" as="geometry" />
        </mxCell>
        <mxCell id="rVZ40jxhPKs0Gg15Az54-33" value="[Invalid information]" style="text;html=1;strokeColor=none;fillColor=none;align=center;verticalAlign=middle;whiteSpace=wrap;rounded=0;" vertex="1" parent="1">
          <mxGeometry x="460" y="-1750" width="140" height="30" as="geometry" />
        </mxCell>
        <mxCell id="rVZ40jxhPKs0Gg15Az54-34" value="[Valid information]" style="text;html=1;strokeColor=none;fillColor=none;align=center;verticalAlign=middle;whiteSpace=wrap;rounded=0;" vertex="1" parent="1">
          <mxGeometry x="270" y="-1730" width="110" height="30" as="geometry" />
        </mxCell>
        <mxCell id="rVZ40jxhPKs0Gg15Az54-36" value="&lt;font style=&quot;font-size: 21px;&quot;&gt;Biểu đồ hoạt động chức năng đăng nhập&amp;nbsp;&lt;/font&gt;" style="text;html=1;strokeColor=none;fillColor=none;align=center;verticalAlign=middle;whiteSpace=wrap;rounded=0;" vertex="1" parent="1">
          <mxGeometry x="450" y="-2260" width="318" height="30" as="geometry" />
        </mxCell>
        <mxCell id="rVZ40jxhPKs0Gg15Az54-39" style="edgeStyle=orthogonalEdgeStyle;rounded=0;orthogonalLoop=1;jettySize=auto;html=1;exitX=0.5;exitY=1;exitDx=0;exitDy=0;entryX=0.5;entryY=0;entryDx=0;entryDy=0;fontSize=21;strokeColor=#000000;" edge="1" parent="1" source="rVZ40jxhPKs0Gg15Az54-37" target="rVZ40jxhPKs0Gg15Az54-38">
          <mxGeometry relative="1" as="geometry" />
        </mxCell>
        <mxCell id="rVZ40jxhPKs0Gg15Az54-37" value="" style="ellipse;html=1;shape=endState;fillColor=#000000;strokeColor=#FFFFFF;fontSize=21;" vertex="1" parent="1">
          <mxGeometry x="345" y="-1440" width="70" height="60" as="geometry" />
        </mxCell>
        <mxCell id="rVZ40jxhPKs0Gg15Az54-46" style="edgeStyle=orthogonalEdgeStyle;rounded=0;orthogonalLoop=1;jettySize=auto;html=1;exitX=0.5;exitY=1;exitDx=0;exitDy=0;entryX=0.5;entryY=0;entryDx=0;entryDy=0;fontSize=12;strokeColor=#000000;" edge="1" parent="1" source="rVZ40jxhPKs0Gg15Az54-38" target="rVZ40jxhPKs0Gg15Az54-41">
          <mxGeometry relative="1" as="geometry" />
        </mxCell>
        <mxCell id="rVZ40jxhPKs0Gg15Az54-38" value="&lt;font style=&quot;font-size: 12px;&quot;&gt;search&lt;/font&gt;" style="rounded=1;whiteSpace=wrap;html=1;fontSize=21;strokeColor=#000000;fillColor=#FFFFFF;" vertex="1" parent="1">
          <mxGeometry x="320" y="-1340" width="120" height="60" as="geometry" />
        </mxCell>
        <mxCell id="rVZ40jxhPKs0Gg15Az54-47" style="edgeStyle=orthogonalEdgeStyle;rounded=0;orthogonalLoop=1;jettySize=auto;html=1;exitX=0.5;exitY=1;exitDx=0;exitDy=0;entryX=0.5;entryY=0;entryDx=0;entryDy=0;fontSize=12;strokeColor=#000000;" edge="1" parent="1" source="rVZ40jxhPKs0Gg15Az54-41" target="rVZ40jxhPKs0Gg15Az54-42">
          <mxGeometry relative="1" as="geometry" />
        </mxCell>
        <mxCell id="rVZ40jxhPKs0Gg15Az54-41" value="&lt;font style=&quot;font-size: 12px;&quot;&gt;Search by keyword&lt;/font&gt;" style="rounded=1;whiteSpace=wrap;html=1;fontSize=21;strokeColor=#000000;fillColor=#FFFFFF;" vertex="1" parent="1">
          <mxGeometry x="320" y="-1240" width="120" height="60" as="geometry" />
        </mxCell>
        <mxCell id="rVZ40jxhPKs0Gg15Az54-48" style="edgeStyle=orthogonalEdgeStyle;rounded=0;orthogonalLoop=1;jettySize=auto;html=1;exitX=0.5;exitY=1;exitDx=0;exitDy=0;fontSize=12;strokeColor=#000000;" edge="1" parent="1" source="rVZ40jxhPKs0Gg15Az54-42" target="rVZ40jxhPKs0Gg15Az54-43">
          <mxGeometry relative="1" as="geometry" />
        </mxCell>
        <mxCell id="rVZ40jxhPKs0Gg15Az54-42" value="&lt;font style=&quot;font-size: 12px;&quot;&gt;Enter keywords&lt;/font&gt;" style="rounded=1;whiteSpace=wrap;html=1;fontSize=21;strokeColor=#000000;fillColor=#FFFFFF;" vertex="1" parent="1">
          <mxGeometry x="320" y="-1140" width="120" height="60" as="geometry" />
        </mxCell>
        <mxCell id="rVZ40jxhPKs0Gg15Az54-49" style="edgeStyle=orthogonalEdgeStyle;rounded=0;orthogonalLoop=1;jettySize=auto;html=1;exitX=0.5;exitY=1;exitDx=0;exitDy=0;entryX=0.5;entryY=0;entryDx=0;entryDy=0;fontSize=12;strokeColor=#000000;" edge="1" parent="1" source="rVZ40jxhPKs0Gg15Az54-43" target="rVZ40jxhPKs0Gg15Az54-44">
          <mxGeometry relative="1" as="geometry" />
        </mxCell>
        <mxCell id="rVZ40jxhPKs0Gg15Az54-53" style="edgeStyle=orthogonalEdgeStyle;rounded=0;orthogonalLoop=1;jettySize=auto;html=1;exitX=1;exitY=0.5;exitDx=0;exitDy=0;entryX=0.5;entryY=0;entryDx=0;entryDy=0;fontSize=12;strokeColor=#000000;" edge="1" parent="1" source="rVZ40jxhPKs0Gg15Az54-43" target="rVZ40jxhPKs0Gg15Az54-45">
          <mxGeometry relative="1" as="geometry" />
        </mxCell>
        <mxCell id="rVZ40jxhPKs0Gg15Az54-43" value="" style="rhombus;whiteSpace=wrap;html=1;fontSize=21;strokeColor=#000000;fillColor=#FFFFFF;" vertex="1" parent="1">
          <mxGeometry x="352.5" y="-1010" width="55" height="50" as="geometry" />
        </mxCell>
        <mxCell id="rVZ40jxhPKs0Gg15Az54-51" style="edgeStyle=orthogonalEdgeStyle;rounded=0;orthogonalLoop=1;jettySize=auto;html=1;exitX=0.5;exitY=1;exitDx=0;exitDy=0;entryX=0.5;entryY=0;entryDx=0;entryDy=0;fontSize=12;strokeColor=#000000;" edge="1" parent="1" source="rVZ40jxhPKs0Gg15Az54-44" target="rVZ40jxhPKs0Gg15Az54-50">
          <mxGeometry relative="1" as="geometry" />
        </mxCell>
        <mxCell id="rVZ40jxhPKs0Gg15Az54-44" value="&lt;font style=&quot;font-size: 12px;&quot;&gt;show results&lt;/font&gt;" style="rounded=1;whiteSpace=wrap;html=1;fontSize=21;strokeColor=#000000;fillColor=#FFFFFF;" vertex="1" parent="1">
          <mxGeometry x="320" y="-920" width="120" height="60" as="geometry" />
        </mxCell>
        <mxCell id="rVZ40jxhPKs0Gg15Az54-52" style="edgeStyle=orthogonalEdgeStyle;rounded=0;orthogonalLoop=1;jettySize=auto;html=1;exitX=0.5;exitY=1;exitDx=0;exitDy=0;entryX=1;entryY=0.5;entryDx=0;entryDy=0;fontSize=12;strokeColor=#000000;" edge="1" parent="1" source="rVZ40jxhPKs0Gg15Az54-45" target="rVZ40jxhPKs0Gg15Az54-50">
          <mxGeometry relative="1" as="geometry" />
        </mxCell>
        <mxCell id="rVZ40jxhPKs0Gg15Az54-45" value="&lt;font style=&quot;font-size: 12px;&quot;&gt;show message not found&lt;/font&gt;" style="rounded=1;whiteSpace=wrap;html=1;fontSize=21;strokeColor=#000000;fillColor=#FFFFFF;" vertex="1" parent="1">
          <mxGeometry x="570" y="-960" width="120" height="60" as="geometry" />
        </mxCell>
        <mxCell id="rVZ40jxhPKs0Gg15Az54-50" value="" style="ellipse;html=1;shape=endState;fillColor=#000000;strokeColor=#1A1A1A;fontSize=12;" vertex="1" parent="1">
          <mxGeometry x="355" y="-810" width="50" height="50" as="geometry" />
        </mxCell>
        <mxCell id="rVZ40jxhPKs0Gg15Az54-54" value="yes" style="text;html=1;strokeColor=none;fillColor=none;align=center;verticalAlign=middle;whiteSpace=wrap;rounded=0;fontSize=12;" vertex="1" parent="1">
          <mxGeometry x="370" y="-970" width="60" height="30" as="geometry" />
        </mxCell>
        <mxCell id="rVZ40jxhPKs0Gg15Az54-55" value="no" style="text;html=1;strokeColor=none;fillColor=none;align=center;verticalAlign=middle;whiteSpace=wrap;rounded=0;fontSize=12;" vertex="1" parent="1">
          <mxGeometry x="600" y="-1020" width="60" height="30" as="geometry" />
        </mxCell>
        <mxCell id="rVZ40jxhPKs0Gg15Az54-56" value="biểu đồ hoạt động tìm kím" style="text;html=1;strokeColor=none;fillColor=none;align=center;verticalAlign=middle;whiteSpace=wrap;rounded=0;fontSize=12;" vertex="1" parent="1">
          <mxGeometry x="610" y="-1390" width="150" height="30" as="geometry" />
        </mxCell>
      </root>
    </mxGraphModel>
  </diagram>
</mxfile>
